<?xml version="1.0" encoding="utf-8" ?>
<svg xmlns="http://www.w3.org/2000/svg" xmlns:xlink="http://www.w3.org/1999/xlink" width="1024" height="1024">
	<path fill="#FEFEFE" d="M0 0L1024 0L1024 1024L0 1024L0 0Z"/>
	<path fill="#020201" d="M673.512 434.392C675.757 434.633 678.582 435.664 679.914 437.641C680.842 439.019 681.066 440.385 680.772 441.985C679.752 447.548 673.955 452.7 669.431 455.732C668.2 455.998 667.227 456.034 666.01 455.725C665.074 455.487 664.061 454.897 663.617 454.019C662.925 452.651 663.129 451.327 663.519 449.907C664.858 445.03 669.18 437.013 673.512 434.392Z"/>
	<path fill="#020201" d="M301.553 317.172C303.417 317.143 306.076 316.96 307.575 318.228C308.671 319.156 309.036 320.591 309.217 321.954C309.652 325.235 307.713 329.627 306.482 332.636C300.214 347.968 292.881 362.928 285.987 377.988L252.46 451.278Q219.136 524.146 187.005 597.549L165.447 646.085C162.098 653.77 156.701 669.526 151.931 675.625C150.444 675.622 149.364 675.64 148.035 674.841C146.201 673.739 145.147 671.568 144.809 669.529C144.187 665.776 145.637 662.158 147.026 658.742C150.534 650.116 154.609 641.652 158.389 633.133L183.754 576.326Q220.938 491.866 259.647 408.094L289.399 343.027C292.855 335.528 297.013 323.586 301.553 317.172Z"/>
	<path fill="#020201" d="M314.999 271.243C339.559 271.377 364.965 276.112 386.815 287.705C407.461 298.659 423.654 316.094 430.468 338.737C437.429 361.868 432.531 388.104 421.177 409.035C402.144 444.121 365.134 471.447 327.068 482.703C312.084 487.133 278.42 493.203 264.877 485.392C262.089 483.784 260.166 481.372 259.353 478.246C258.597 475.333 258.966 472.415 260.643 469.883C262.015 467.812 264.683 465.173 267.312 464.989C268.661 464.895 269.481 465.347 270.506 466.135C271.34 467.757 270.993 469.354 270.974 471.11C270.951 473.091 271.012 474.726 272.561 476.172C276.329 479.69 289.39 478.297 294.251 477.889C335.135 474.452 374.068 450.836 400.1 419.73C415.479 401.353 426.471 377.848 424.231 353.414Q424.062 351.695 423.809 349.986Q423.555 348.278 423.217 346.584Q422.879 344.89 422.457 343.215Q422.035 341.539 421.531 339.887Q421.027 338.235 420.442 336.61Q419.857 334.985 419.192 333.391Q418.526 331.796 417.783 330.237Q417.04 328.678 416.22 327.157Q415.401 325.637 414.507 324.159Q413.613 322.681 412.647 321.249Q411.681 319.817 410.645 318.434Q409.609 317.052 408.506 315.723Q407.403 314.394 406.235 313.121Q405.068 311.848 403.838 310.634Q402.609 309.42 401.321 308.269Q400.033 307.118 398.69 306.032C371.724 284.033 334.825 280.725 301.382 284.118Q287.856 285.414 274.563 288.234Q268.587 289.568 262.656 291.088Q256.725 292.608 250.845 294.312Q244.964 296.016 239.139 297.903Q233.314 299.79 227.551 301.857Q221.788 303.925 216.093 306.171Q210.397 308.417 204.774 310.84Q199.151 313.263 193.607 315.86Q188.062 318.457 182.601 321.226Q177.14 323.994 171.768 326.932Q166.396 329.87 161.119 332.974Q155.841 336.077 150.663 339.344Q145.485 342.611 140.411 346.038Q135.337 349.465 130.373 353.049Q125.408 356.632 120.558 360.369Q115.708 364.105 110.976 367.991Q106.245 371.877 101.637 375.909C91.7766 384.689 80.9832 394.262 73.8095 405.416C78.6158 412.733 93.0918 426.848 102.525 426.835C105.662 426.83 111.224 425.003 113.996 426.19C115.121 426.671 115.565 427.478 115.849 428.62C116.322 430.525 115.718 433.448 114.756 435.131C113.212 437.832 110.276 439.237 107.343 439.886C99.0973 441.711 90.0601 438.406 83.1608 434.017C66.3019 423.291 54.1682 400.816 50.0225 381.699C47.8925 371.877 46.754 358.304 52.6024 349.566C54.1788 347.211 57.6967 343.182 60.8069 342.991C61.8505 342.927 62.6634 343.014 63.3416 343.874C66.5659 347.959 60.8528 356.41 60.1731 360.89C58.4272 372.398 61.8684 380.186 67.002 390.255Q70.1799 386.88 73.4149 383.56C122.683 332.964 201.563 288.17 271.268 275.16C285.784 272.451 300.255 271.445 314.999 271.243Z"/>
	<path fill="#020201" d="M613.934 633.231C630.314 632.668 645.662 635.652 659.297 645.11C668.596 651.56 676.523 660.69 678.498 672.137C680.661 684.674 674.335 697.33 667.214 707.219C650.925 729.839 622.805 745.85 595.498 750.305C574.377 753.751 549.325 751.94 531.543 739.048C509.375 722.975 501.476 701.638 497.402 675.66C456.472 692.994 414.909 715.094 370.02 719.409Q367.58 719.478 365.139 719.505C348.496 719.727 331.715 715.576 319.539 703.561C312.894 697.004 306.785 687.472 306.906 677.812C306.972 672.503 309.068 667.334 313.052 663.759C315.497 661.565 318.681 659.817 322.062 660.063C323.94 660.199 325.464 660.721 326.684 662.198C328.066 668.646 317.256 668.664 314.834 674.463C313.934 676.62 314.221 678.809 315.16 680.901C319.048 689.553 329.232 696.2 337.76 699.531C382.455 716.993 455.435 684.302 497.334 665.916C497.296 661.642 497.263 647.437 499.869 644.408C501.387 647.908 499.522 660.422 499.552 664.89C508.193 661.453 516.562 657.314 525.209 653.856C553.575 642.514 583.305 634.516 613.934 633.231Z"/>
	<path fill="#FEFEFE" d="M604.573 639.704C610.494 638.894 617.448 639.125 623.366 639.571C637.963 640.67 653.762 646.354 663.491 657.742C669.022 664.217 672.16 672.303 671.47 680.894C670.211 696.548 658.224 710.39 646.808 720.118C624.528 739.104 598.644 748.346 569.383 745.926C555.115 744.083 542.779 739.768 531.124 731.203C512.136 717.248 503.802 696.714 500.251 674.136C532.12 658.663 569.017 642.96 604.573 639.704Z"/>
	<path fill="#020201" d="M564.102 293.447C564.856 293.508 565.809 293.529 566.519 293.785Q566.755 293.868 566.981 293.975Q567.207 294.082 567.421 294.212Q567.635 294.342 567.833 294.494Q568.032 294.645 568.214 294.817Q568.397 294.988 568.56 295.177Q568.723 295.367 568.866 295.573Q569.008 295.778 569.129 295.997Q569.249 296.216 569.346 296.447C570.627 299.486 569.398 303.07 568.332 305.986C564.946 315.251 559.621 324.307 555.228 333.167C543.726 356.367 531.225 379.415 521.179 403.28C551.872 405.728 594.214 408.756 623.899 403.704C640.029 400.96 660.692 394.651 670.541 380.469C673.702 375.917 676.764 368.707 675.604 363.161C674.235 356.613 666.773 358.113 662.641 355.055C661.145 353.947 660.408 352.292 660.229 350.476C660.071 348.869 660.512 347.38 661.692 346.224C662.888 345.053 664.452 344.664 666.076 344.653C671.058 344.617 676.779 347.494 680.093 351.132C683.878 355.289 685.068 360.686 684.836 366.174C684.368 377.236 677.871 387.266 669.855 394.496Q667.803 396.346 665.589 397.996Q663.374 399.647 661.015 401.085Q658.657 402.523 656.175 403.736Q653.693 404.948 651.109 405.925C615.914 419.33 555.175 414.624 517.092 412.662C504.563 440.142 491.685 468.04 481.576 496.507Q471.652 524.916 464.924 554.246C462.452 564.672 458.368 582.191 460.676 592.298C461.229 594.719 462.461 597.015 464.708 598.238C466.693 599.319 468.936 599.204 471.01 598.457C487.42 592.544 514.563 550.325 523.498 534.042C528.649 524.653 532.934 514.895 537.296 505.126C535.316 503.519 533.531 501.869 532.157 499.693C527.997 493.105 528.154 485.164 529.975 477.861C532.504 467.722 539.79 452.698 549.262 447.352C551.804 445.917 555.026 445.228 557.862 446.154C559.84 446.799 561.196 448.342 562.116 450.155C563.313 452.513 563.736 455.178 563.608 457.803C563.048 469.202 555.246 487.546 551.328 498.8C560.062 498.618 574.211 494.528 581.805 496.429C583.511 496.856 584.769 497.785 585.627 499.339C586.644 501.182 586.304 502.796 585.57 504.674C582.912 511.481 578.223 518.195 574.607 524.553C566.081 539.546 557.583 555.579 552.786 572.21C551.031 578.295 548.754 587.923 552.197 593.714C553.741 596.309 556.425 597.934 559.335 598.551C563.604 599.456 567.751 598.115 571.484 596.082C589.506 586.27 616.91 546.876 627.523 528.788C632.566 520.193 642.189 495.325 649.262 490.735C650.706 490.58 650.611 490.526 651.746 491.423Q651.966 491.858 652.145 492.311Q652.324 492.764 652.462 493.231Q652.599 493.698 652.693 494.176Q652.786 494.654 652.836 495.139Q652.886 495.623 652.892 496.111Q652.897 496.598 652.858 497.083Q652.819 497.569 652.736 498.049Q652.653 498.529 652.526 498.999C650.534 506.639 645.701 514.511 642.372 521.686C634.974 537.631 623.41 565.071 621.184 582.091C620.555 586.898 619.93 595.245 623.229 599.154C624.514 600.678 626.339 601.305 628.291 601.356C633.303 601.486 638.363 598.511 642.297 595.626C655.775 585.741 678.991 557.315 688.615 543.083C693.943 535.203 697.804 526.551 703.424 518.767Q707.575 513.029 712.229 507.692Q716.883 502.355 722.002 497.462C729.989 489.959 739.465 482.367 751.071 482.944C756.656 483.221 762.231 486.258 765.867 490.441Q766.217 490.845 766.547 491.265Q766.878 491.686 767.186 492.122Q767.495 492.558 767.782 493.009Q768.069 493.46 768.334 493.925Q768.598 494.389 768.839 494.867Q769.08 495.344 769.298 495.832Q769.515 496.32 769.708 496.819Q769.901 497.317 770.069 497.825Q770.237 498.332 770.38 498.847Q770.523 499.362 770.641 499.884Q770.758 500.406 770.849 500.932Q770.941 501.459 771.006 501.989Q771.071 502.52 771.111 503.053Q771.15 503.586 771.162 504.121Q771.175 504.655 771.162 505.19Q771.148 505.724 771.108 506.257C770.661 512.602 767.197 523.727 762.158 527.794C760.945 528.773 759.509 529.435 757.911 529.111C756.316 528.787 754.807 527.429 754.194 525.949C752.933 522.9 758.266 514.787 759.573 511.661C761.159 507.867 763.036 501.5 761.23 497.611C760.423 495.873 758.906 494.844 757.133 494.269C751.771 492.533 747.268 493.93 742.475 496.398C721.494 507.199 702.046 539.959 695.012 561.965C692.311 570.412 689.652 582.94 694.174 591.188C696.221 594.92 699.612 597.181 703.644 598.348C710.752 600.404 718.826 599.062 725.773 596.965C777.849 581.24 801.391 514.431 848.133 490.066C854.437 486.78 861.729 484.57 868.734 486.976C877.371 489.941 882.099 497.318 885.931 505.064C888.388 501.532 890.766 497.849 893.422 494.466C894.681 492.864 896.051 491.695 898.16 491.519Q898.464 491.494 898.769 491.5Q899.073 491.506 899.376 491.544Q899.678 491.581 899.975 491.649Q900.273 491.717 900.561 491.815Q900.85 491.913 901.127 492.04Q901.404 492.167 901.667 492.322Q901.929 492.477 902.175 492.657Q902.42 492.838 902.646 493.043C904.374 494.619 904.706 496.843 904.168 499.032C902.904 504.173 899.566 509.26 897.328 514.086C888.415 533.314 872.107 563.413 872.419 584.288C872.471 587.782 872.937 593.298 875.936 595.614C877.007 596.441 878.383 596.616 879.683 596.402C895.141 593.86 918.263 559.659 926.75 546.82Q932.248 538.242 936.973 529.216C938.994 525.273 940.694 520.844 943.238 517.22C944.284 515.729 945.263 514.775 946.855 513.905C948.272 513.919 948.328 514.165 949.437 515.088C950.387 517.285 949.813 518.744 949.07 520.856C941.291 542.967 908.41 594.603 886.829 604.536C882.983 606.306 879.013 607.063 874.981 605.398C870.719 603.639 868.091 599.671 866.46 595.524C858.934 576.388 869.234 550.472 876.991 532.786C853.032 554.387 841.643 582.391 812.568 600.285C806.738 603.873 799.228 607.514 792.249 605.625C788.283 604.551 784.587 601.803 782.7 598.12C777.421 587.815 778.973 577.531 782.164 566.911C775.213 574.797 768.293 582.663 760.113 589.324C745.794 600.983 727.836 610.395 708.806 608.249C700.759 607.341 693.468 604.134 688.429 597.542C680.666 587.385 680.958 575.729 682.758 563.694C671.92 577.836 660.049 593.849 645.119 603.917C639.589 607.646 633.163 609.909 626.446 608.47C621.554 607.421 617.029 604.241 614.484 599.921C607.765 588.52 613.007 571.611 616.29 559.889C605.351 575.26 586.375 600.199 568.066 605.981C563.061 607.562 558.063 607.172 553.464 604.591C548.183 601.628 544.562 596.705 542.965 590.902C536.668 568.029 561.872 526.127 572.797 506.311C564.099 507.091 555.478 509.033 546.715 508.157C536.503 534.23 501.347 589.955 477.233 604.738C472.946 607.366 467.661 609.109 462.637 607.778C458.793 606.759 455.749 604.111 453.91 600.621C444.876 583.483 457.76 545.322 463.05 527.132C449.109 548.224 425.613 593.207 402.694 603.741C398.725 605.565 393.399 606.925 389.17 605.204C385.423 603.678 383.021 600.36 381.508 596.74C372.224 574.531 383.653 550.149 392.264 529.675C375.561 550.804 342.304 594.442 318 604.952C313.574 606.866 308.569 607.824 303.995 605.828C299.435 603.84 295.904 599.424 294.128 594.869C289.925 584.096 293.325 570.953 297.878 560.863C307.565 539.395 340.564 497.336 363.266 488.932C369.305 486.697 375.84 485.906 381.801 488.871C389.56 492.73 393.075 500.585 395.671 508.33C399.569 504.324 404.162 496.809 409.492 494.94C410.7 494.516 411.98 494.485 413.097 495.196C415.067 496.45 415.664 499.357 415.436 501.533C414.245 512.945 398.185 540.142 393.192 553.415C389.231 563.944 385.847 575.872 387.748 587.216C388.204 589.935 388.714 593.084 391.083 594.77C393.605 595.389 396.001 594.433 398.297 593.386C418.042 584.379 444.939 539.477 457.556 520.287C462.403 512.914 468.466 505.359 472.312 497.445C474.262 493.433 475.492 488.967 476.947 484.751Q480.566 474.333 484.412 463.996C490.997 446.345 498.522 429.101 505.398 411.574C499.066 410.427 492.606 409.932 486.217 409.191Q470.662 407.328 455.086 405.658C448.314 404.945 434.963 404.86 429.453 402.217C428.562 401.177 428.188 400.249 428.23 398.871C428.258 397.995 428.291 396.952 429.008 396.377C435.152 391.446 499.079 400.728 510.031 401.822C513.096 394.388 516.859 387.144 520.185 379.813C527.173 364.409 534.061 348.99 541.279 333.689C546.768 322.053 551.576 309.136 558.598 298.366C560.185 295.932 561.482 294.707 564.102 293.447Z"/>
	<path fill="#FEFEFE" d="M552.954 455.392L553.504 456.045C554.285 462.144 551.657 469.754 549.855 475.523C548.929 478.483 544.084 493.502 542.717 494.22L541.628 493.23C539.474 489.64 538.358 486.939 538.465 482.616C538.742 471.487 545.181 462.701 552.954 455.392Z"/>
	<path fill="#FEFEFE" d="M373.939 497.067C376.587 496.802 379.309 497.134 381.685 498.381C387.451 501.407 389.554 508.268 391.469 514.019C372.491 540.487 346.485 575.053 318.912 592.505C317.389 593.343 315.861 594.125 314.233 594.744C311.903 595.629 308.765 596.419 306.428 595.109C305.044 594.333 304.318 592.958 303.984 591.462C301.693 581.194 310.091 564.036 315.2 555.47C325.712 537.848 354.113 502.069 373.939 497.067Z"/>
	<path fill="#FEFEFE" d="M862.418 496.571C865.169 496.255 867.513 496.234 870.177 497.098C876.074 499.012 879.211 503.36 881.98 508.582C863.251 535.101 834.485 577.329 806.461 592.992C805.26 593.59 804.054 594.133 802.796 594.604C799.586 595.805 795.127 597.099 791.887 595.439C790.382 594.669 789.424 593.277 788.963 591.678C786.047 581.566 794.104 566.328 798.848 557.844C810.956 536.193 838.317 503.414 862.418 496.571Z"/>
	<path fill="#020201" d="M505.29 31.7485Q513.726 31.5221 522.165 31.5992Q530.604 31.6764 539.035 32.0569Q547.466 32.4375 555.878 33.1211Q564.29 33.8046 572.671 34.7903Q581.053 35.7759 589.394 37.0624Q597.734 38.3488 606.024 39.9344Q614.313 41.5199 622.539 43.4026Q630.766 45.2853 638.92 47.4626Q644.562 48.9418 650.165 50.5602Q655.768 52.1786 661.329 53.9353Q666.891 55.6919 672.407 57.5858Q677.923 59.4796 683.391 61.5094Q688.858 63.5392 694.274 65.7038Q699.69 67.8684 705.05 70.1664Q710.41 72.4644 715.712 74.8944Q721.014 77.3244 726.254 79.885Q731.494 82.4455 736.669 85.135Q741.845 87.8245 746.951 90.6414Q752.058 93.4582 757.094 96.4006Q762.13 99.343 767.091 102.409Q772.052 105.475 776.936 108.663Q781.819 111.852 786.623 115.16Q791.426 118.468 796.146 121.894Q800.866 125.319 805.5 128.861Q810.133 132.403 814.678 136.058Q819.222 139.714 823.675 143.481Q828.128 147.247 832.486 151.123Q836.844 154.999 841.104 158.982Q845.365 162.964 849.526 167.051Q853.687 171.138 857.745 175.327Q861.803 179.516 865.757 183.803Q869.71 188.091 873.556 192.476Q877.402 196.86 881.138 201.338Q884.875 205.817 888.499 210.386Q892.123 214.956 895.633 219.613Q899.143 224.271 902.537 229.014Q905.93 233.758 909.205 238.584Q912.48 243.409 915.635 248.315Q918.79 253.22 921.822 258.202Q924.854 263.184 927.762 268.24Q930.556 273.006 933.231 277.839Q935.906 282.673 938.46 287.571Q941.015 292.47 943.447 297.43Q945.879 302.39 948.188 307.409Q950.496 312.428 952.679 317.502Q954.863 322.577 956.92 327.704Q958.977 332.831 960.906 338.008Q962.836 343.184 964.636 348.407Q966.437 353.63 968.107 358.895Q969.778 364.161 971.317 369.467Q972.857 374.772 974.264 380.114Q975.672 385.456 976.947 390.832Q978.222 396.207 979.363 401.612Q980.504 407.017 981.511 412.449Q982.518 417.881 983.39 423.336Q984.262 428.791 984.998 434.266Q985.735 439.741 986.336 445.233Q986.936 450.724 987.401 456.229Q987.865 461.734 988.193 467.249Q988.521 472.763 988.712 478.285Q988.903 483.806 988.957 489.33Q989.011 494.854 988.929 500.378Q988.846 505.901 988.627 511.421Q988.407 516.941 988.051 522.454Q987.695 527.967 987.202 533.469Q986.709 538.972 986.08 544.46Q985.451 549.949 984.687 555.42Q983.922 560.891 983.022 566.342Q982.122 571.792 981.087 577.219Q980.052 582.645 978.883 588.045Q977.714 593.444 976.411 598.813Q975.109 604.181 973.674 609.516Q972.182 614.927 970.559 620.3Q968.936 625.672 967.182 631.004Q965.428 636.336 963.545 641.623Q961.662 646.91 959.65 652.15Q957.639 657.39 955.5 662.579Q953.361 667.768 951.097 672.904Q948.832 678.04 946.443 683.118Q944.054 688.197 941.542 693.216Q939.03 698.235 936.396 703.192Q933.762 708.148 931.008 713.039Q928.255 717.929 925.382 722.751Q922.51 727.573 919.521 732.324Q916.532 737.074 913.428 741.751Q910.324 746.427 907.107 751.026Q903.891 755.626 900.562 760.145Q897.234 764.664 893.797 769.101Q890.359 773.538 886.815 777.89Q883.271 782.242 879.621 786.506Q875.971 790.771 872.219 794.944Q868.467 799.118 864.614 803.199Q860.761 807.281 856.809 811.267Q852.858 815.253 848.811 819.141Q844.763 823.03 840.622 826.819Q836.481 830.607 832.249 834.294Q828.017 837.98 823.696 841.563Q819.376 845.145 814.969 848.621Q810.562 852.097 806.072 855.465Q801.581 858.832 797.01 862.089Q792.44 865.346 787.791 868.491Q783.141 871.635 778.417 874.666Q773.693 877.696 768.896 880.61Q764.099 883.525 759.233 886.321Q754.017 889.36 748.728 892.268Q743.438 895.176 738.077 897.951Q732.716 900.726 727.288 903.366Q721.86 906.007 716.367 908.511Q710.875 911.015 705.322 913.381Q699.768 915.748 694.158 917.975Q688.547 920.202 682.883 922.288Q677.219 924.375 671.504 926.319Q665.79 928.264 660.028 930.065Q654.267 931.866 648.462 933.523Q642.658 935.18 636.814 936.692Q630.97 938.204 625.09 939.569Q619.21 940.934 613.298 942.153Q607.386 943.371 601.445 944.441Q595.504 945.512 589.539 946.434Q583.573 947.355 577.586 948.128Q571.6 948.901 565.595 949.524Q559.591 950.147 553.573 950.62Q547.556 951.093 541.528 951.416Q535.5 951.739 529.466 951.911Q523.432 952.084 517.396 952.106Q511.36 952.127 505.325 951.999Q499.29 951.87 493.26 951.591Q487.23 951.311 481.209 950.881Q475.188 950.452 469.179 949.872Q463.171 949.292 457.179 948.563Q451.187 947.833 445.214 946.954Q439.242 946.076 433.294 945.048Q427.346 944.021 421.425 942.845Q415.504 941.67 409.615 940.347Q403.725 939.024 397.87 937.555Q392.015 936.085 386.199 934.47Q380.731 932.942 375.301 931.282Q369.871 929.621 364.484 927.829Q359.096 926.037 353.754 924.115Q348.411 922.193 343.117 920.141Q337.823 918.089 332.58 915.909Q327.337 913.729 322.149 911.423Q316.961 909.116 311.83 906.684Q306.7 904.252 301.63 901.696Q296.56 899.14 291.554 896.461Q286.548 893.782 281.608 890.983Q276.668 888.183 271.798 885.264Q266.928 882.345 262.13 879.309Q257.333 876.273 252.61 873.121Q247.888 869.969 243.243 866.703Q238.599 863.436 234.035 860.058Q229.471 856.68 224.991 853.193Q220.511 849.705 216.117 846.109Q211.723 842.513 207.417 838.811Q203.112 835.11 198.898 831.305Q194.684 827.499 190.564 823.593Q186.443 819.686 182.419 815.681Q178.395 811.675 174.47 807.573Q170.544 803.471 166.719 799.275Q162.895 795.078 159.173 790.79Q155.452 786.502 151.836 782.125Q148.22 777.747 144.711 773.283Q141.202 768.819 137.803 764.271Q134.404 759.723 131.117 755.094Q127.829 750.465 124.655 745.757Q121.481 741.049 118.423 736.265Q115.364 731.482 112.423 726.625Q109.481 721.769 106.659 716.842Q104.627 713.297 102.661 709.715Q100.694 706.133 98.7941 702.516Q96.8938 698.898 95.0602 695.247Q93.2267 691.595 91.4605 687.91Q89.6943 684.226 87.9961 680.509Q86.2979 676.792 84.6682 673.045Q83.0385 669.298 81.4778 665.522Q79.9172 661.746 78.4262 657.941Q76.9352 654.137 75.5143 650.306Q74.0934 646.474 72.7431 642.618Q71.3928 638.761 70.1135 634.881Q68.8343 631 67.6265 627.096Q66.4187 623.193 65.2828 619.268Q64.1469 615.343 63.0832 611.397Q62.0196 607.452 61.0286 603.488Q60.0376 599.524 59.1195 595.542Q58.2015 591.561 57.3567 587.563Q56.5119 583.565 55.7407 579.552Q54.9694 575.539 54.272 571.513Q53.5746 567.487 52.9512 563.449Q52.3278 559.411 51.7787 555.361Q51.2296 551.312 50.7549 547.254Q50.2803 543.195 49.8802 539.129Q49.4801 535.062 49.1548 530.989Q48.8295 526.916 48.579 522.838Q48.3285 518.759 48.153 514.677Q47.9775 510.594 47.8769 506.51Q47.7764 502.425 47.7508 498.339Q47.7253 494.253 47.7748 490.167Q47.8243 486.081 47.9488 481.997Q48.0734 477.912 48.2729 473.831Q48.4724 469.75 48.7468 465.673C49.9918 448.041 51.4703 429.403 56.1681 412.3C59.0149 417.171 62.8318 421.88 64.9588 427.096C55.7521 497.816 59.8872 566.76 83.1995 634.522C122.291 748.15 206.356 838.701 313.75 891.161Q322.203 895.275 330.818 899.037Q339.433 902.798 348.196 906.201Q356.96 909.603 365.856 912.641Q374.753 915.678 383.767 918.345Q392.781 921.012 401.898 923.305Q411.015 925.597 420.219 927.511Q429.423 929.425 438.698 930.957Q447.973 932.49 457.303 933.637Q461.933 934.221 466.573 934.713Q471.214 935.205 475.863 935.605Q480.513 936.005 485.169 936.312Q489.826 936.619 494.487 936.834Q499.149 937.049 503.814 937.171Q508.479 937.294 513.145 937.323Q517.812 937.353 522.478 937.29Q527.144 937.227 531.808 937.071Q536.472 936.915 541.132 936.667Q545.792 936.419 550.446 936.078Q555.1 935.737 559.746 935.304Q564.393 934.871 569.029 934.346Q573.666 933.821 578.292 933.204Q582.917 932.586 587.53 931.877Q592.142 931.169 596.74 930.368Q601.337 929.568 605.918 928.676Q610.498 927.785 615.06 926.802Q619.622 925.82 624.164 924.748Q628.705 923.675 633.225 922.512Q637.744 921.35 642.24 920.098Q646.735 918.845 651.205 917.504Q655.674 916.163 660.117 914.733Q664.559 913.304 668.972 911.786Q673.385 910.269 677.766 908.664Q682.148 907.059 686.498 905.367Q690.847 903.676 695.161 901.898Q699.476 900.121 703.755 898.258Q708.033 896.395 712.274 894.448Q716.515 892.5 720.716 890.469Q724.917 888.437 729.077 886.323Q733.238 884.209 737.355 882.012Q741.472 879.816 745.545 877.538Q761.923 868.265 777.564 857.795Q793.204 847.324 808.019 835.716Q812.245 832.451 816.389 829.082Q820.533 825.713 824.592 822.243Q828.652 818.773 832.625 815.204Q836.597 811.635 840.48 807.969Q844.363 804.303 848.155 800.542Q851.946 796.78 855.644 792.927Q859.341 789.073 862.942 785.13Q866.543 781.186 870.046 777.155Q873.548 773.123 876.95 769.006Q880.352 764.89 883.651 760.69Q886.951 756.491 890.145 752.211Q893.34 747.931 896.427 743.574Q899.515 739.217 902.494 734.784Q905.473 730.352 908.342 725.847Q911.211 721.343 913.968 716.769Q916.724 712.195 919.367 707.554Q922.01 702.914 924.537 698.209Q927.065 693.504 929.475 688.739Q931.886 683.973 934.178 679.15Q936.47 674.326 938.642 669.447Q940.814 664.569 942.865 659.638Q944.916 654.707 946.844 649.727Q948.773 644.746 950.578 639.72Q952.382 634.694 954.063 629.625Q955.743 624.556 957.297 619.446Q958.852 614.337 960.28 609.191Q961.708 604.045 963.008 598.865Q964.308 593.686 965.48 588.475Q966.652 583.265 967.695 578.027Q968.738 572.79 969.651 567.528Q970.564 562.266 971.347 556.983Q972.13 551.7 972.782 546.4C988.038 427.582 953.15 311.876 880.154 217.727Q876.681 213.337 873.104 209.031Q869.527 204.725 865.847 200.507Q862.167 196.288 858.388 192.159Q854.608 188.03 850.729 183.993Q846.851 179.956 842.878 176.014Q838.904 172.071 834.836 168.225Q830.769 164.379 826.61 160.632Q822.451 156.885 818.204 153.239Q813.956 149.593 809.622 146.05Q805.288 142.507 800.87 139.069Q796.453 135.631 791.954 132.3Q787.454 128.969 782.877 125.748Q778.299 122.526 773.645 119.415Q768.991 116.304 764.264 113.306Q759.536 110.308 754.738 107.424Q749.94 104.541 745.074 101.773Q740.209 99.0057 735.278 96.3559Q730.347 93.706 725.353 91.1754Q720.36 88.6448 715.308 86.2349Q710.255 83.825 705.146 81.5372Q700.037 79.2493 694.875 77.0849Q689.712 74.9205 684.499 72.8807Q679.286 70.841 674.026 68.927Q668.765 67.0131 663.46 65.2261Q658.155 63.4391 652.809 61.7801Q647.462 60.1211 642.078 58.591Q636.693 57.0609 631.273 55.6606Q625.853 54.2603 620.401 52.9907Q614.949 51.721 609.468 50.5827Q603.987 49.4444 598.481 48.4381Q592.974 47.4318 587.445 46.558Q581.916 45.6843 576.367 44.9437Q569.274 44.0032 562.155 43.283Q555.036 42.5629 547.899 42.0637Q540.761 41.5646 533.611 41.2869Q526.461 41.0092 519.307 40.9533Q512.152 40.8974 504.998 41.0634Q497.845 41.2293 490.701 41.6168Q483.556 42.0044 476.427 42.6132Q469.298 43.2221 462.191 44.0516Q455.084 44.8812 448.006 45.9306Q440.928 46.9801 433.887 48.2484Q426.845 49.5167 419.846 51.0027Q412.846 52.4887 405.897 54.191Q398.947 55.8932 392.054 57.8101Q385.16 59.727 378.329 61.8566Q371.498 63.9862 364.737 66.3265Q357.975 68.6669 351.289 71.2157Q344.604 73.7645 338 76.5193Q331.396 79.2741 324.882 82.2323Q318.367 85.1905 311.946 88.3493Q305.526 91.508 299.207 94.8642Q292.888 98.2204 286.676 101.771Q280.464 105.321 274.365 109.063Q268.266 112.804 262.286 116.733Q256.305 120.661 250.45 124.773Q244.594 128.885 238.869 133.177Q233.144 137.469 227.555 141.936Q221.965 146.403 216.517 151.041Q211.069 155.679 205.767 160.484Q200.465 165.289 195.315 170.255Q190.164 175.222 185.17 180.346Q180.176 185.47 175.344 190.747Q170.511 196.023 165.844 201.447Q158.017 210.54 150.698 220.046Q143.379 229.553 136.591 239.445Q129.803 249.338 123.566 259.587Q117.329 269.836 111.661 280.41C101.305 300.027 91.7392 320.201 84.6715 341.263C82.4288 347.946 80.5653 354.759 78.7045 361.556C77.8052 364.841 77.1348 368.578 75.7717 371.679C74.7206 374.069 72.224 375.927 70.2185 377.487L69.161 377.324C67.0184 375.068 65.8232 371.678 65.7097 368.58C65.435 361.08 70.7591 349.008 73.1888 341.738Q75.1254 336.091 77.2109 330.497Q79.2964 324.903 81.5294 319.367Q83.7624 313.83 86.1414 308.354Q88.5203 302.879 91.0435 297.468Q93.5667 292.058 96.2323 286.716Q98.898 281.374 101.704 276.105Q104.51 270.836 107.455 265.642Q110.4 260.449 113.482 255.336Q116.563 250.223 119.779 245.193Q122.995 240.163 126.343 235.221Q129.691 230.278 133.169 225.425Q136.647 220.573 140.252 215.814Q143.857 211.056 147.587 206.395Q151.317 201.733 155.169 197.173Q159.021 192.612 162.993 188.155Q166.965 183.697 171.053 179.347C239.647 105.181 335.262 55.8235 434.434 38.5892C457.949 34.5027 481.472 32.6662 505.29 31.7485Z"/>
</svg>
