<?xml version="1.0" encoding="utf-8" ?>
<svg xmlns="http://www.w3.org/2000/svg" xmlns:xlink="http://www.w3.org/1999/xlink" width="512" height="512">
	<path fill="white" transform="scale(0.5 0.5)" d="M-0 -0L1024 0L1024 1024L-0 1024L0 -0Z"/>
	<path fill="#010000" transform="scale(0.5 0.5)" d="M514.831 26.1984C516.635 25.7986 518.929 25.9555 520.786 25.917C533.674 25.6497 545.869 29.3176 555.231 38.427C562.381 45.3842 567.637 54.943 567.594 65.1562C567.589 66.4176 567.664 66.3932 566.79 67.25C552.848 70.7748 537.237 72.1372 523.11 68.7609C506.676 64.8334 492.83 54.5885 483.935 40.3582C478.191 43.0122 472.145 45.7529 466.676 48.9151C463.5 50.751 460.548 53.0032 457.5 55.0395C439.117 67.3215 423.902 81.4073 409.327 97.9753C403.942 104.097 398.353 110.205 393.721 116.924C413.608 117.339 433.948 118.622 453.75 116.502C458.015 116.045 462.407 115.593 466.591 114.652C468.914 114.129 471.204 113.06 473.547 112.732C476.313 112.345 478.357 110.978 480.874 109.875C484.068 108.476 487.426 107.281 490.515 105.673C495.928 102.856 501.208 99.0157 506.103 95.3923C503.915 98.5757 501.717 102.386 499.044 105.156C492.695 111.736 480.583 117.597 471.536 119.128L470.571 119.277C479.532 120.508 488.96 120.037 498 120.21C514.962 120.535 533.129 122.052 549.75 125.458C590.681 133.846 630.738 154.448 659.64 184.864C670.534 196.328 679.886 209.169 687.349 223.104C703.556 253.364 709.717 290.249 711.321 324.19C711.888 336.189 711.45 348.298 711.137 360.299L715.788 341.308C723.252 315.666 732.627 290.107 743.75 265.848C749.577 253.141 755.745 240.078 763.648 228.506C775.644 210.942 790.955 189.366 811.135 180.875C814.195 179.587 817.425 178.128 820.712 177.567L821.5 177.444C824.883 176.885 828.508 176.714 831.919 177.134C840.252 178.158 845.057 181.812 851.337 187.081C853.767 189.12 856.608 191.406 858.446 194.004C861.598 198.457 861.676 203.572 863.441 208.5C864.427 211.253 866.738 213.988 866.185 217.036C865.753 219.411 864.976 222.412 862.75 223.654C861.184 224.527 859.907 224.491 858.25 224.008C857.563 223.404 856.96 222.898 856.583 222.042C855.291 219.102 857.416 215.005 858.395 212.159C856.524 213.593 855.077 215.137 853 216.36C851.213 216.58 849.713 216.609 848 215.971C845.822 215.159 843.325 213.294 842.434 211.087C839.973 204.996 844.716 197.388 847.02 191.89C844.672 187.259 842.14 185.228 837.326 183.502C830.024 180.883 821.305 181.903 814.409 185.221C798.216 193.014 786.194 207.44 776.027 221.875C750.436 258.208 734.065 301.379 722.175 343.988C710.227 386.805 701.564 430.303 684.236 471.473C676.5 489.854 667.331 507.945 655.79 524.25L646.929 536.5C645.285 538.642 639.333 543.724 639.041 546.317C638.967 546.982 641.206 551.102 641.616 552.201C644.039 558.695 644.096 569.876 642.299 576.46C641.314 580.068 639.609 583.614 638.375 587.167C639.178 589.288 639.85 591.467 640.237 593.705C641.392 600.4 640.075 609.134 639.421 615.905C637.876 631.887 635.968 647.208 631.752 662.784C629.234 672.082 625.796 681.767 620.132 689.652C616.165 695.174 609.172 702.356 602.341 703.467L601.633 703.573C600.31 706.713 599.514 710.005 598.501 713.25C597.715 715.768 596.526 718.406 596.107 721.004C599.41 724.878 603.478 728.757 605.655 733.401C607.475 737.285 608.377 741.678 609.33 745.838C609.737 747.613 609.999 750.371 611.186 751.75C614.009 750.802 617.501 745.531 619.4 743.255C629.05 731.688 638.05 719.831 646.048 707.044C649.512 701.507 652.181 695.397 655.799 690.002C658.449 686.051 661.898 682.679 664.641 678.797C670.174 670.968 673.669 661.867 676.561 652.781C677.483 649.883 678.864 646.197 678.925 643.132C678.991 639.815 677.557 635.885 676.75 632.669L671.888 613.311C670.441 607.602 669.267 601.481 668.357 595.648C666.688 584.964 665.993 567.753 673.153 558.75C674.235 557.389 675.804 556.231 677.617 556.255C679.584 556.282 680.929 557.423 682.161 558.826C685.758 562.924 687.232 568.963 688.006 574.24C689.601 585.13 689.147 595.395 687.045 606.172C686.046 611.289 684.137 616.238 683.381 621.397C682.735 625.808 682.801 630.511 682.595 634.975L685.229 627.25C685.604 627.912 685.847 627.949 686.483 628.328L687.722 626.75L688.245 627.25C688.413 629.802 688.518 633.256 687.206 635.507C684.725 639.766 684.718 644.79 683.481 649.5C680.54 660.699 675.863 672.798 669.167 682.305C666.454 686.156 662.875 689.044 660.379 693.147C657.802 697.386 655.822 702.079 653.486 706.463C650.327 712.391 646.621 718.197 642.835 723.75C615.039 764.524 572.814 800.241 527.074 819.19C504.366 828.598 479.985 833.415 456.944 841.834C447.059 845.446 437.678 850.247 428.566 855.474C420.434 860.557 412.21 866.863 408.463 875.925C409.577 878.525 410.834 881.066 412.859 883.095C413.06 883.297 414.074 884.362 414.347 884.434C415.768 884.81 418.381 884.515 419.888 884.519L435.109 884.414L502.79 884.387C503.994 891.6 504.483 901.059 503.391 908.278C498.774 908.709 493.959 908.382 489.319 908.322L468.809 908.277C462.651 908.237 456.539 907.997 450.401 908.634C450.08 909.978 450.654 911.654 450.958 913L453.753 923.855C461.423 949.384 480.533 968.12 503.75 980.013C516.786 986.691 537.488 988.561 551.438 983.933C560.31 980.989 569.128 976.439 573.375 967.641C576.157 961.879 577.014 954.766 574.7 948.692C572.145 941.987 567.087 939.102 560.903 936.334C560.781 936.937 562.083 939.157 562.391 939.845C564.208 943.898 565.867 948.024 564.672 952.53C564.077 954.77 562.659 956.574 560.593 957.636C558.837 958.538 557.554 958.411 555.769 957.763C553.245 956.846 550.758 954.864 549.727 952.33C548.417 949.109 548.512 943.206 549.966 940.064C551.966 935.74 555.352 933.517 559.601 931.82C562.784 932.324 565.91 932.877 568.68 934.643C573.883 937.958 578.591 943.88 579.911 949.96C581.499 957.273 580.916 965.924 576.712 972.301C570.337 981.974 559.213 988.214 548 990.382C528.106 994.229 505.444 988.924 488.702 977.549C472.739 966.704 458.609 950.697 451.412 932.656C448.258 924.751 446.424 916.413 444.859 908.079C432.838 908.927 420.623 908.376 408.57 908.365L346.25 908.196L269.531 908.362L250.25 908.56C247.687 908.586 244.114 909.054 241.75 908.181C240.879 905.649 241.233 902.751 241.239 900.1L241.625 884.096L309.393 884.262C308.481 869.883 308.981 855.282 308.835 840.864L308.831 734.003L308.56 552.25L308.704 450L308.555 366.232L308.524 345.038C308.535 341.125 308.919 336.841 308.32 332.995C307.284 326.342 304.436 320.832 301.363 314.97C298.804 310.088 296.385 305.444 292.755 301.25C291.279 299.545 287.514 294.921 285.313 294.75C283.259 297.851 285.917 302.079 283.425 305.304L277.055 313.19C253.56 337.476 215.918 336.916 185.255 330.632C174 328.326 162.833 324.292 151.431 322.736C143.804 321.695 135.471 322.448 127.759 322.627C129.246 321.409 130.951 320.671 132.432 319.406C144.695 308.92 156.238 296.573 170.151 288.214C176.205 284.577 183.74 281.719 190.462 279.553C180.904 276.086 171.599 270.433 163.017 265.055C157.078 261.334 150.995 257.648 145.371 253.464C148.11 248.956 151.505 246.291 155.5 242.952C158.065 240.808 160.512 238.339 163.214 236.38C170.116 231.377 177.829 227.549 186.073 225.357C197.106 222.424 208.659 221.125 219.75 224.578C228.747 227.379 236.919 232.705 245.016 237.416C244.04 233.686 241.94 229.977 240.33 226.457L232.034 207.367C227.639 195.994 225.791 184.501 222.964 172.75C221.204 165.435 218.304 158.56 216.985 151.094C223.439 160.482 232.106 167.25 242.75 171.529C251.652 175.108 261.298 177.327 269.818 181.875C279.264 186.918 286.727 194.211 292.427 203.25C301.486 217.614 301.756 237.59 303.602 253.906L307.319 278.219C307.755 280.742 307.925 285.747 309.144 287.878C309.56 286.484 309.177 284.502 309.133 283.021L309.239 276.317L309.1 192.575L309.084 124.607L251.331 124.423C250.552 123.295 251.01 119.033 251.001 117.483L285.394 117.306L342.379 117.137L366.548 117.408C371.411 117.453 376.414 117.727 381.25 117.146C382.307 117.019 383.981 116.984 384.923 116.619C386.863 115.869 388.997 112.291 390.327 110.596C421.153 71.3373 463.198 32.404 514.831 26.1984Z"/>
	<path fill="white" transform="scale(0.5 0.5)" d="M860.953 213.75L862.05 214.023L862.533 216.5C862.442 218.091 861.496 218.702 860.473 219.75L859.25 219.409C859.046 218.819 858.962 218.695 858.939 218C858.886 216.458 860.056 214.89 860.953 213.75Z"/>
	<path fill="#EFEEEF" transform="scale(0.5 0.5)" d="M486.54 789.447C490.243 790.984 493.766 792.058 497.617 793.115C493.742 794.625 489.696 796.163 485.562 796.772C486.252 794.273 486.442 792.011 486.54 789.447Z"/>
	<path fill="white" transform="scale(0.5 0.5)" d="M557.162 937.25L558.49 937.594C560.98 939.947 561.126 943.425 562.267 946.5L562.519 947.017C563.055 948.393 563.122 950.772 562.465 952.116C561.584 953.921 560.247 954.594 558.471 955.25L557.845 955.241C556.581 955.103 555.628 954.415 554.805 953.491C552.897 951.348 552.161 948.056 552.555 945.25C553.003 942.054 554.622 939.2 557.162 937.25Z"/>
	<path fill="white" transform="scale(0.5 0.5)" d="M851.58 194.353C853.538 196.689 855.684 199.124 856.897 201.95C858.351 205.336 857.225 208.314 856.012 211.525C854.68 212.713 853.378 213.319 851.75 214.031C850.337 214.172 849.285 214.297 848.051 213.391C846.673 212.38 846.075 211.142 845.77 209.528C844.72 203.967 848.65 198.673 851.58 194.353Z"/>
	<path fill="white" transform="scale(0.5 0.5)" d="M396.278 123.72C401.029 123.34 406.022 123.589 410.775 123.913C412.238 124.013 413.849 123.897 415.093 124.75L386.947 128.51L371.025 132.125L370.844 124.542L396.278 123.72Z"/>
	<path fill="white" transform="scale(0.5 0.5)" d="M634.008 550.75L634.931 550.832C636.075 552.451 636.697 553.919 637.101 555.865C638.753 563.82 637.982 576.267 633.535 583.241L628.344 577.517L618.949 565.336L634.008 550.75Z"/>
	<path fill="white" transform="scale(0.5 0.5)" d="M676.487 561.75L677.184 561.736C678.289 562.495 679.13 563.439 679.843 564.57C681.11 566.582 681.618 569.597 682.194 571.894C686.264 588.135 682.127 603.657 679.005 619.576L673.545 597.705C671.563 587.32 670.16 570.989 676.487 561.75Z"/>
	<path fill="white" transform="scale(0.5 0.5)" d="M434.598 889.806L435.085 889.864C443.321 890.982 452.307 890.196 460.641 890.098L496.987 889.991C497.021 892.602 497.908 900.349 496.518 902.25L493.513 902.468L469.057 902.132L455.531 902.11C453.156 902.078 450.321 902.282 448.034 901.652C443.122 900.301 439.993 895.772 435.392 894.061C433.057 893.193 430.903 891.983 428.707 890.816C430.368 890.733 432.222 890.764 433.786 890.149L434.598 889.806Z"/>
	<path fill="white" transform="scale(0.5 0.5)" d="M583.453 627.25L584.334 627.238C585.346 628.096 585.875 628.841 586.529 629.995C592.878 641.188 598.112 653.734 600.352 666.453C601.199 671.266 601.232 676.437 601.611 681.324C602.091 687.513 602.804 692.36 601.128 698.484C596.764 694.346 593.805 690.542 591.209 685.107C584.017 670.052 581.805 654.426 582.402 637.943C582.531 634.399 582.252 630.621 583.453 627.25Z"/>
	<path fill="white" transform="scale(0.5 0.5)" d="M485.562 796.772C472.23 799.905 457.814 801.094 444.134 800.409C433.103 799.858 421.292 797.784 410.379 795.978C411.734 794.771 414.458 793.994 416.17 793.282L426.841 788.75C435.197 785.614 444.342 783.782 453.194 782.953C457.711 782.53 462.259 782.175 466.771 782.879C473.907 783.994 480.01 786.499 486.54 789.447C486.442 792.011 486.252 794.273 485.562 796.772Z"/>
	<path fill="white" transform="scale(0.5 0.5)" d="M244.488 179.054C257.885 182.474 270.004 186.307 280.11 196.262C293.639 209.588 297.396 231.861 297.554 250.087L244.488 179.054Z"/>
	<path fill="white" transform="scale(0.5 0.5)" d="M624.502 518.906C627.109 526.973 629.049 537.673 628.521 546.101C623.758 551.987 617.606 557.106 611.783 561.903C592.048 578.159 570.634 590.663 546.608 599.587C541.289 601.562 535.56 602.641 530.143 604.551L526.25 605.297C527.633 603.749 532.835 602.44 534.986 601.543L545.525 596.611C557.887 590.313 570.785 582.543 581.39 573.54C599.399 558.251 613.237 539.52 624.502 518.906Z"/>
	<path fill="white" transform="scale(0.5 0.5)" d="M430.704 668.062L431.184 672.491C431.335 682.236 433.664 691.959 433.982 701.685C434.925 730.445 421.906 756.199 407.933 780.497C407.593 781.111 407.353 781.972 406.696 782.25C406.715 777.643 407.323 772.985 407.477 768.36C407.734 760.62 407.164 751.77 408.654 744.197C410.356 735.551 414.026 726.606 416.757 718.185C422.068 701.81 427.333 684.948 430.704 668.062Z"/>
	<path fill="white" transform="scale(0.5 0.5)" d="M268.785 285.715L268.904 285.671C273.102 285.293 275.836 286.518 279.415 288.389L279.474 293.96C279.422 301.024 276.84 306.063 271.856 310.942C267.765 314.948 262.97 317.726 257.868 320.25C242.717 327.744 228.042 329.597 211.375 329.486C208.053 328.728 204.212 328.707 200.794 328.265C212.338 326.807 222.699 324.735 232.294 317.738C238.803 312.992 245.007 306.028 247.537 298.244C248.7 294.665 249.061 290.627 249.628 286.91L268.785 285.715Z"/>
	<path fill="white" transform="scale(0.5 0.5)" d="M161.834 253.172L162.021 253.144C188.946 251.498 215.706 255.469 239.735 268.285C245.951 271.6 251.468 275.519 257.117 279.709L252.378 280.154C240.013 281.138 226.995 282.055 214.652 280.29C199.982 278.192 185.841 271.605 173.076 264.356L157.029 254.336C157.809 253.432 160.567 253.362 161.834 253.172Z"/>
	<path fill="white" transform="scale(0.5 0.5)" d="M519.372 31.2111C529.021 30.6637 538.004 32.6198 546.152 37.9038C555.379 43.8872 560.043 51.9557 562.338 62.578C553.373 65.337 542.65 65.3376 533.379 64.814C521.984 63.6013 511.757 60.1391 502.353 53.3841C498.433 50.5682 489.793 43.3935 488.959 38.3751C498.965 34.8623 508.74 32.0225 519.372 31.2111Z"/>
	<path fill="white" transform="scale(0.5 0.5)" d="M203.55 228.212C212.435 228.419 220.696 230.419 228.607 234.496C239.63 240.176 248.783 248.548 256.912 257.8C260.185 261.524 263.609 265.383 266.003 269.75C267.848 273.115 269.021 276.782 270.203 280.417L242.789 263.606C221.958 253.08 200.317 247.684 176.955 247.381C170.719 247.3 164.612 247.195 158.429 248.174C171.156 234.88 185.447 229.673 203.55 228.212Z"/>
	<path fill="white" transform="scale(0.5 0.5)" d="M371.542 769.746C373.283 773.312 374.935 777.133 377.136 780.436C381.737 787.34 388.033 792.326 395.018 796.629L390.95 808.592C388.946 816.857 389.446 825.065 390.082 833.442C391.276 849.168 393.567 866.641 402.049 880.28L404.631 884.128L371.509 884.198L371.542 769.746Z"/>
	<path fill="white" transform="scale(0.5 0.5)" d="M284.231 890.24L388.589 890.389L410.795 890.492C414.206 890.515 418.514 890.051 421.75 891.005C423.545 891.534 425.225 892.981 426.77 894.03L437.44 901.628C432.409 902.574 427.36 902.396 422.264 902.422L401.25 902.476L247.543 902.721L248.051 890.533L284.231 890.24Z"/>
	<path fill="white" transform="scale(0.5 0.5)" d="M370.041 683.727C374.009 690.014 376.396 696.858 381.012 702.938C384.593 707.656 389.527 711.209 393.084 715.99C402.575 728.744 402.491 745.53 402.248 760.685C402.099 769.955 401.731 779.064 400.367 788.25C399.831 789.445 399.939 789.548 398.75 790.041C393.564 789.553 390.513 787.475 387.027 783.729C383.556 779.997 379.597 775.29 377.36 770.691C375.842 767.571 375.026 763.902 374.083 760.57C372.305 754.284 370.7 747.502 370.11 740.992C369.273 731.763 369.83 722.344 369.828 713.084L370.041 683.727Z"/>
	<path fill="white" transform="scale(0.5 0.5)" d="M197.723 283.025C200.523 282.979 203.254 283.654 206 284.142L220.375 286.521C228.115 287.601 236.308 287.259 244.104 287.097C243.644 289.792 243.427 292.66 242.601 295.271C240.837 300.85 236.607 306.207 232.504 310.299C221.836 320.941 204.925 323.578 190.51 323.461C184.888 323.218 179.365 322.897 173.825 321.831C163.512 319.847 153.735 316.7 143.154 316.025L162.802 300.366C173.141 292.583 185.089 286.172 197.723 283.025Z"/>
	<path fill="white" transform="scale(0.5 0.5)" d="M226.274 168.282C229.696 170.674 234.23 172.945 237.152 175.855C240.881 179.57 243.334 185.635 246.216 190.059L258.254 207.217L272.432 226C281.424 236.938 291.362 247.963 297.024 261.121C300.492 269.181 302.236 277.503 304.156 286C306.315 295.554 308.439 304.219 308.555 314.114C306.91 311.836 305.417 309.624 304.39 306.983C302.87 303.075 302.347 298.783 300.658 294.958C298.946 291.083 295.28 286.853 291.87 284.364C289.935 282.951 287.51 282.596 285.473 281.275C278.201 276.558 274.664 269.726 269.69 262.963C262.5 253.19 255.209 242.566 249.192 232.007C247.747 229.471 246.794 226.63 245.526 224C242.582 217.891 239.49 211.967 236.988 205.628C232.312 193.788 228.854 180.752 226.274 168.282Z"/>
	<path fill="white" transform="scale(0.5 0.5)" d="M315.703 125.032L329.069 124.893L329.023 179.807L329.032 290.767L328.551 344.084C328.36 351.37 328.547 358.482 327.74 365.75L327.332 367.199C326.65 360.602 324.235 354.421 322.145 348.175C319.946 341.601 317.934 334.591 316.808 327.75C315.107 317.411 315.981 306.297 316.008 295.827L315.944 250.703L315.527 164.076L315.703 125.032Z"/>
	<path fill="white" transform="scale(0.5 0.5)" d="M615.649 567.75L616.859 567.577C618.212 571.772 620.134 575.238 622.619 578.865C626.015 583.822 634.893 592.081 634.849 598.221C634.803 604.704 634.11 611.205 633.626 617.668C631.915 640.517 628.719 667.453 615.431 686.756C613.12 690.113 609.897 692.994 607 695.85L606.354 673.529C606.093 669.75 605.979 665.647 605.086 661.964C602.29 650.438 598.419 640.045 592.295 629.849C590.47 626.81 588.332 623.109 585.25 621.255C583.771 621.006 582.935 620.871 581.5 621.504C579.234 623.732 578.622 626.625 577.912 629.614L576.784 653.291L576.021 653.476C572.88 653.93 568.182 652.474 565.233 651.416C560.112 649.58 555.15 647.409 550.586 644.427C542.307 639.018 535.304 632.002 527.251 626.366C523.434 623.695 518.96 622.034 515.062 619.38C512.355 617.536 509.386 616.817 506.274 615.899C515.203 613.209 524.716 612.436 533.75 610.001C553.443 604.693 572.867 596.862 590.217 586.04C599.155 580.464 607.275 574.096 615.649 567.75Z"/>
	<path fill="white" transform="scale(0.5 0.5)" d="M594.129 727.751C602.585 736.097 603.729 745.588 605.825 756.745C601.08 764.132 591.537 770.957 584.748 776.644C565.771 792.539 543.344 805.923 520.323 814.988C510.654 818.796 500.231 821.95 490.252 824.883C473.349 829.851 455.886 834.066 439.981 841.806C434.799 844.328 428.986 847.257 424.227 850.447C420.764 852.769 417.476 855.729 414.27 858.403C411.284 860.894 406.916 864.712 405.621 868.43L406.411 868.648L405.876 872.5L405.551 872.5L404.356 870.18C404.263 868.982 402.667 866.709 402.14 865.485C401.373 863.703 400.903 861.718 400.432 859.835C398.987 854.062 398.28 848.139 397.511 842.25C396.322 833.142 395.082 822.829 396.316 813.676L396.446 812.75C396.938 809.066 397.829 805.334 399.53 802C399.783 801.505 401.326 798.706 401.574 798.615C401.888 798.5 410.462 801.027 411.548 801.248C420.272 803.022 429.393 804.361 438.241 805.25C456.515 807.085 476.902 805.488 494.318 799.542C500.071 797.578 505.419 794.982 511.039 792.736C519.826 789.225 528.58 785.795 537 781.434C552.82 773.241 566.63 761.959 578.597 748.85C584.656 742.213 590.161 735.886 594.129 727.751Z"/>
	<path fill="white" transform="scale(0.5 0.5)" d="M315.13 345.341C320.336 359.528 325.128 375.658 326.306 390.722L327.427 418.838L329.431 448.949L329.424 540.779L329.406 753.25L329.526 846.845L329.568 872.391C329.569 876.201 330.029 880.588 329.312 884.297L327.125 884.372L315.348 884.477L315.13 345.341Z"/>
	<path fill="white" transform="scale(0.5 0.5)" d="M519.374 128.25C524.775 127.808 531.65 129.506 537.102 130.276C567.029 134.498 595.537 145.225 620.965 161.592C625.624 164.591 629.965 168.099 634.397 171.419C642.596 177.562 650.308 185.027 657.051 192.669C663.671 200.171 669.83 207.41 675.219 215.889C680.664 224.458 684.814 233.883 688.497 243.304C694.371 258.336 698.707 273.814 700.973 289.812C703.086 304.724 703.938 319.48 704.131 334.531C704.227 341.986 704.415 349.606 703.92 357.046C702.956 371.551 700.814 386.29 698.329 400.608C697.119 407.579 696.225 414.621 694.486 421.489C689.701 440.388 682.113 459.662 674.09 477.424C666.62 493.963 658.337 509.771 647.412 524.318L634.524 541.197C633.147 534.963 632.966 528.528 631.483 522.301C630.951 520.067 630.128 517.885 629.359 515.722C629.242 515.393 628.507 513.751 628.541 513.442C628.721 511.791 631.117 508.193 631.878 506.565L638.903 490.56C660.305 441.076 670.392 388.118 668.489 334.252C667.81 315.01 665.859 295.451 661.602 276.641C658.346 262.25 653.474 247.974 648.022 234.281C644.751 226.068 640.374 218.338 635.795 210.814C631.714 204.11 627.51 197.384 622.618 191.223C606.317 170.691 582.934 152.385 558.877 141.888C550.342 138.165 541.665 134.845 532.784 132.056C528.704 130.774 523.82 130.269 519.974 128.531L519.374 128.25Z"/>
	<path fill="white" transform="scale(0.5 0.5)" d="M459.639 617.224L462.25 617.192C457.063 619.508 450.897 620.368 445.5 622.417C443.598 623.14 441.767 623.699 440.368 625.25C440.338 626.595 440.367 626.531 441.25 627.559C447.902 627.891 455.855 624.623 462.36 623.036C471.113 620.9 480.815 619.63 489.815 620.168C504.54 621.046 515.421 624.869 527.208 633.896C530.325 636.283 533.034 638.977 536.229 641.25C538.144 642.612 539.837 644.59 541.646 646.109C545.363 649.227 550.457 651.488 554.825 653.5C558.443 655.166 562.097 656.776 565.994 657.665C568.951 658.339 572.133 658.515 575.151 658.819C575.757 658.88 577.556 658.858 577.928 659.094C578.234 659.287 578.073 659.802 578.147 660.156L580.375 669.809C583.4 681.7 588.295 692.911 596.492 702.109L591.295 717.253C587.57 713.202 585.212 708.556 582.119 704.077C578.836 699.321 575.032 694.74 571.403 690.241C564.43 681.597 555.884 674.983 549.432 665.737C546.945 662.173 544.635 658.429 542.973 654.4C542.175 652.464 541.803 650.227 540.913 648.364C540.04 646.537 537.868 644.678 536.472 643.191C537.204 647.482 537.662 651.955 538.907 656.134C544.146 673.729 559.101 683.275 569.56 697.231C576.222 706.12 581.307 716.21 589.032 724.199C584.466 733.939 576.165 742.436 568.678 750.034C562.712 756.006 556.087 761.793 549.172 766.644C543.994 770.275 537.995 773.422 532.404 776.387C522.293 781.75 507.801 789.824 495.974 787.353C493.197 786.773 490.22 784.987 487.576 783.843C481.459 781.198 474.984 778.03 468.376 776.946C464.562 776.321 460.599 776.578 456.75 776.713L471.674 765.25C481.028 756.802 489.588 745.886 490.25 732.743C488.952 732.53 488.33 732.578 487.509 733.75C486.119 735.733 485.265 738.472 484.138 740.648C480.627 747.433 475.982 753.476 470.277 758.551C464.593 763.608 458.119 768.666 451.316 772.131C444.103 775.805 436.421 778.097 428.944 781.093L408.95 789.945L411.17 787.164L412.4 785.708C414.716 782.891 416.168 779.324 417.959 776.156C428.548 757.424 438.339 735.956 440.177 714.318C441.411 699.795 438.368 685.372 437.281 670.917L436.539 656.25L435.042 639.296L433.845 618.224C442.247 616.733 451.112 617.945 459.639 617.224Z"/>
	<path fill="white" transform="scale(0.5 0.5)" d="M335.713 124.77L364.466 124.568C365.502 127.288 364.94 132.131 364.987 135.191L364.909 172.253L365.008 263.25L364.637 692.25L365.385 755.741L365.025 827.662C364.926 846.137 365.856 865.084 364.478 883.483L363.25 884.178L337 884.195L336.469 883.5L337.25 882.755L336.75 882.379C336.627 882.254 336.527 882.105 336.452 881.947C335.161 879.222 336.19 807.546 336.199 797.884L335.99 698.418L336.136 460.153L335.685 444.75L335.566 302.159L335.686 169.232L335.713 124.77Z"/>
	<path fill="white" transform="scale(0.5 0.5)" d="M424.257 128.664L426.5 128.452L427.003 129.25C427.696 139.864 427.19 150.583 427.201 161.22L427.136 225.091L427.089 416.438L427.378 580.951L427.558 621.386C427.696 631.717 428.318 642.444 427.231 652.724C424.316 680.265 413.564 707.032 406.364 733.637C403.832 725.916 401.881 719.262 397.141 712.479C393.548 707.645 388.68 703.725 384.794 699.105C379.926 693.318 376.206 684.834 373.767 677.724C372.927 675.273 371.856 672.441 371.616 669.864C370.947 662.665 371.421 654.967 371.339 647.719L371.421 588.616L371.483 413.341L371.458 232.486L371.458 173.376C371.456 162.022 370.87 150.313 371.884 139.029L424.257 128.664Z"/>
	<path fill="white" transform="scale(0.5 0.5)" d="M445.94 126.771C455.469 126.31 465.157 127.018 474.643 127.893C482.149 128.585 489.877 129.203 497.312 130.466C509.992 132.619 522.504 136.035 534.807 139.744C577.053 152.479 613.58 182.608 634.336 221.44C648.424 247.795 656.175 277.407 659.606 306.939C665.239 355.423 660.072 402.226 647.035 449.091C644.89 456.801 642.201 464.663 639.175 472.058C636.341 478.983 633.114 485.647 630.948 492.831C627.203 479.643 623.816 464.066 615.491 452.852C613.195 449.76 610.819 447.425 607.829 444.99C609.423 450.325 612.299 455.326 614.581 460.408C619.361 471.052 623.112 481.782 625.12 493.29C625.49 495.412 626.236 497.855 626.264 500C626.282 501.341 625.97 501.917 625.037 502.815L624.43 500.75L623.75 500.921C621.147 506.344 620.288 512.259 617.44 517.744C614.55 522.672 611.789 527.795 608.587 532.526C602.484 541.541 595.417 549.934 587.915 557.808C579.211 566.944 569.662 574.114 559.161 581.024C532.851 598.34 502.851 607.212 471.6 609.755L434.225 610.99C433.644 605.961 433.98 600.555 433.962 595.484L433.789 566.515L433.86 442.75L433.801 284.5L434 126.948L445.94 126.771Z"/>
</svg>
